<svg viewBox="0 0 268 48" xmlns="http://www.w3.org/2000/svg">
    <path d="M63.4504 24.231C63.4504 17.9984 67.2246 13.6806 73.2045 13.6806C78.1871 13.6806 81.6427 16.5891 81.9751 21.0142H77.3768C77.0029 19.0475 75.5832 17.5586 73.2702 17.5586C70.3063 17.5586 68.3257 20.0309 68.3257 24.1479C68.3257 28.3202 70.2647 30.8306 73.2702 30.8306C75.3824 30.8306 76.9648 29.5668 77.3768 27.375H81.9751C81.6288 31.7066 78.3602 34.7502 73.2322 34.7502C67.1311 34.7537 63.4504 30.4082 63.4504 24.231Z"
          fill="currentcolor"/>
    <path d="M90.7421 34.3555H85.9326V7.14325H90.6348V17.4132H90.8737C91.8155 15.1002 93.8099 13.6806 96.947 13.6806C101.185 13.6806 103.976 16.4298 103.976 21.3605V34.3555H99.1665V22.1049C99.1665 19.3557 97.6776 17.7456 95.1534 17.7456C92.5773 17.7456 90.7421 19.4457 90.7421 22.3958V34.3555Z"
          fill="currentcolor"/>
    <path d="M107.906 28.6284C107.906 24.0301 111.694 22.8494 115.652 22.4235C119.253 22.0392 120.7 21.9734 120.7 20.5884V20.5087C120.7 18.5039 119.478 17.3613 117.245 17.3613C114.894 17.3613 113.536 18.5558 113.059 19.9512L108.568 19.3141C109.631 15.5919 112.927 13.6806 117.217 13.6806C121.109 13.6806 125.51 15.301 125.51 20.6957V34.3555H120.887V31.5508H120.728C119.852 33.2648 117.937 34.7675 114.734 34.7675C110.842 34.7675 107.906 32.6415 107.906 28.6284ZM120.718 27.0322V24.6257C120.094 25.1312 117.57 25.4498 116.306 25.6229C114.153 25.9276 112.546 26.6998 112.546 28.5453C112.546 30.3112 113.983 31.2288 115.988 31.2288C118.883 31.2322 120.718 29.3071 120.718 27.0322Z"
          fill="currentcolor"/>
    <path d="M129.485 24.231C129.485 17.9049 133.287 13.6806 139.263 13.6806C145.243 13.6806 149.045 17.9049 149.045 24.231C149.045 30.5432 145.243 34.7537 139.263 34.7537C133.287 34.7537 129.485 30.5432 129.485 24.231ZM144.166 24.2171C144.166 20.4845 142.546 17.4928 139.291 17.4928C135.981 17.4928 134.36 20.481 134.36 24.2171C134.36 27.9532 135.981 30.8998 139.291 30.8998C142.546 30.8998 144.166 27.9497 144.166 24.2171Z"
          fill="currentcolor"/>
    <path d="M164.855 19.8197C164.481 18.4762 163.314 17.2678 161.094 17.2678C159.09 17.2678 157.559 18.2234 157.573 19.605C157.559 20.7892 158.383 21.5059 160.457 21.9699L163.937 22.7144C167.791 23.5523 169.664 25.3321 169.678 28.2406C169.664 32.1083 166.063 34.7502 160.963 34.7502C155.953 34.7502 152.805 32.5307 152.206 28.7842L156.898 28.3341C157.31 30.1692 158.743 31.1249 160.949 31.1249C163.234 31.1249 164.751 30.0758 164.751 28.6803C164.751 27.5238 163.875 26.7655 162.002 26.3535L158.522 25.6229C154.602 24.8127 152.767 22.8459 152.781 19.8681C152.767 16.094 156.115 13.6771 161.032 13.6771C165.817 13.6771 168.58 15.8827 169.245 19.3384L164.855 19.8197Z"
          fill="currentcolor"/>
    <path d="M173.65 13.9437H178.248V17.4132H178.487C179.339 15.0864 181.385 13.6806 184.12 13.6806C186.87 13.6806 188.85 15.1037 189.636 17.4132H189.847C190.751 15.1418 193.009 13.6806 195.973 13.6806C199.719 13.6806 202.351 16.0974 202.351 20.6576V34.3589H197.527V21.3986C197.527 18.8744 195.987 17.7317 194.048 17.7317C191.721 17.7317 190.353 19.3245 190.353 21.6237V34.352H185.637V21.2012C185.637 19.1029 184.242 17.7317 182.209 17.7317C180.135 17.7317 178.463 19.4319 178.463 21.9457V34.3555H173.653V13.9437H173.65Z"
          fill="currentcolor"/>
    <path d="M206.36 24.269C206.36 17.9707 210.173 13.6771 216.021 13.6771C221.045 13.6771 225.349 16.828 225.349 23.9886V25.4636H211.132C211.173 28.9573 213.23 31.0037 216.339 31.0037C218.414 31.0037 220.006 30.1 220.657 28.3722L225.148 28.8777C224.296 32.4268 221.028 34.7502 216.274 34.7502C210.121 34.7537 206.36 30.6748 206.36 24.269ZM220.74 22.2227C220.713 19.4457 218.853 17.427 216.09 17.427C213.22 17.427 211.294 19.6188 211.146 22.2227H220.74Z"
          fill="currentcolor"/>
    <path d="M241.159 19.8197C240.785 18.4762 239.618 17.2678 237.399 17.2678C235.394 17.2678 233.863 18.2234 233.877 19.605C233.863 20.7892 234.687 21.5059 236.762 21.9699L240.241 22.7144C244.095 23.5523 245.968 25.3321 245.982 28.2406C245.968 32.1083 242.367 34.7502 237.267 34.7502C232.257 34.7502 229.109 32.5307 228.51 28.7842L233.202 28.3341C233.614 30.1692 235.048 31.1249 237.253 31.1249C239.538 31.1249 241.055 30.0758 241.055 28.6803C241.055 27.5238 240.179 26.7655 238.306 26.3535L234.826 25.6229C230.906 24.8127 229.071 22.8459 229.085 19.8681C229.071 16.094 232.419 13.6771 237.336 13.6771C242.122 13.6771 244.885 15.8827 245.549 19.3384L241.159 19.8197Z"
          fill="currentcolor"/>
    <path d="M254.763 34.3555H249.954V7.14325H254.656V17.4132H254.895C255.837 15.1002 257.831 13.6806 260.968 13.6806C265.207 13.6806 267.997 16.4298 267.997 21.3605V34.3555H263.188V22.1049C263.188 19.3557 261.699 17.7456 259.175 17.7456C256.599 17.7456 254.763 19.4457 254.763 22.3958V34.3555Z"
          fill="currentcolor"/>
    <path d="M48.0213 25.4498C46.9721 23.1887 44.7318 21.8591 42.3946 21.8591C41.8025 21.8591 41.2035 21.9526 40.6149 22.1292L33.8663 11.2048C36.207 9.49779 37.0969 6.31916 35.8331 3.59067C34.7805 1.32962 32.5437 0 30.203 0C29.3304 0 28.4405 0.186978 27.5991 0.578247C24.7287 1.91133 23.361 5.16267 24.3132 8.10238L11.1451 14.9582C9.96087 13.3897 8.11187 12.4964 6.19708 12.4964C5.32451 12.4964 4.43464 12.6833 3.59324 13.0746C0.483862 14.515 -0.863072 18.1992 0.577351 21.3051C1.6265 23.5661 3.86678 24.8958 6.204 24.8958C6.93806 24.8958 7.67905 24.7573 8.3958 24.4837L15.0716 36.9489C12.9768 38.7044 12.2254 41.703 13.4304 44.3034C14.4795 46.5644 16.7198 47.8941 19.057 47.8941C19.9296 47.8941 20.8194 47.7071 21.6608 47.3158C24.4136 46.0381 25.7813 42.9945 25.0541 40.1587L37.1869 31.4158C38.3469 33.2197 40.3344 34.262 42.4015 34.262C43.2741 34.262 44.164 34.075 45.0054 33.6837C48.1148 32.2398 49.4652 28.5522 48.0213 25.4498ZM36.3594 29.4525L24.1885 38.2231C23.5964 37.3436 22.8035 36.6546 21.8998 36.1906L29.372 12.3475C29.649 12.3856 29.9294 12.4063 30.2134 12.4063C30.8089 12.4063 31.4079 12.3128 31.9966 12.1363L38.7451 23.0571C36.7403 24.5114 35.8019 27.0425 36.3594 29.4525ZM19.0501 35.4912C18.3195 35.4912 17.582 35.6297 16.8687 35.8998L10.1894 23.4311C12.0869 21.8349 12.8763 19.2137 12.0973 16.8003L25.2654 9.94099C25.8401 10.6993 26.5707 11.2983 27.3879 11.7173L19.9192 35.55C19.6318 35.512 19.3409 35.4912 19.0501 35.4912ZM28.9114 3.40369C29.3235 3.21325 29.7563 3.1163 30.203 3.1163C31.401 3.1163 32.4986 3.8192 33.0042 4.90298C33.3504 5.65089 33.3851 6.48883 33.1011 7.26098C32.8172 8.03313 32.2493 8.64946 31.5049 8.99918C31.0928 9.18962 30.6566 9.28657 30.2099 9.28657C29.0118 9.28657 27.9142 8.58367 27.4087 7.49989C26.6954 5.95559 27.3671 4.12044 28.9114 3.40369ZM6.204 21.7795C5.00596 21.7795 3.90833 21.0766 3.40279 19.9928C2.68605 18.452 3.36124 16.6133 4.90208 15.9C5.31412 15.7096 5.75041 15.6127 6.19708 15.6127C7.39512 15.6127 8.49275 16.3156 8.99828 17.3993C9.71503 18.9402 9.03983 20.7788 7.499 21.4921C7.08695 21.6825 6.65067 21.7795 6.204 21.7795ZM20.352 44.4869C19.94 44.6773 19.5037 44.7743 19.057 44.7743C17.859 44.7743 16.7613 44.0714 16.2558 42.9876C15.539 41.4468 16.2142 39.6082 17.7551 38.8949C18.1671 38.7044 18.6034 38.6075 19.0501 38.6075C20.2481 38.6075 21.3458 39.3104 21.8513 40.3942C22.5646 41.935 21.8928 43.7736 20.352 44.4869ZM43.6965 30.8548C43.2845 31.0453 42.8482 31.1422 42.4015 31.1422C41.2035 31.1422 40.1059 30.4393 39.6003 29.3555C38.8836 27.8147 39.5588 25.9761 41.0996 25.2628C41.5117 25.0724 41.9479 24.9754 42.3946 24.9754C43.5927 24.9754 44.6903 25.6783 45.1958 26.7621C45.9126 28.3029 45.2408 30.1381 43.6965 30.8548Z"
          fill="currentcolor"/>
</svg>
