<svg viewBox="0 0 29 28" xmlns="http://www.w3.org/2000/svg">
    <path d="M28.5309 14.8785C27.9076 13.5567 26.5766 12.7794 25.1879 12.7794C24.8362 12.7794 24.4803 12.834 24.1305 12.9372L20.121 6.55061C21.5117 5.55263 22.0404 3.69433 21.2895 2.09919C20.6641 0.777328 19.3352 0 17.9445 0C17.4261 0 16.8974 0.109312 16.3975 0.338057C14.6921 1.11741 13.8795 3.01822 14.4452 4.73684L6.62163 8.74494C5.91806 7.82793 4.81951 7.30567 3.68187 7.30567C3.16346 7.30567 2.63475 7.41498 2.13485 7.64372C0.287477 8.48583 -0.512778 10.6397 0.343022 12.4555C0.966356 13.7773 2.29737 14.5547 3.68599 14.5547C4.12212 14.5547 4.56236 14.4737 4.9882 14.3138L8.9545 21.6012C7.70989 22.6275 7.26348 24.3806 7.97938 25.9008C8.60272 27.2227 9.93373 28 11.3224 28C11.8408 28 12.3695 27.8907 12.8694 27.6619C14.5049 26.915 15.3175 25.1356 14.8854 23.4777L22.0939 18.3664C22.7831 19.4211 23.9639 20.0304 25.1921 20.0304C25.7105 20.0304 26.2392 19.9211 26.7391 19.6923C28.5865 18.8482 29.3888 16.6923 28.5309 14.8785ZM21.6022 17.2186L14.3711 22.3462C14.0194 21.832 13.5483 21.4291 13.0113 21.1579L17.4508 7.21862C17.6154 7.24089 17.782 7.25304 17.9507 7.25304C18.3045 7.25304 18.6604 7.19838 19.0101 7.09514L23.0196 13.4798C21.8285 14.33 21.271 15.8097 21.6022 17.2186ZM11.3182 20.749C10.8842 20.749 10.446 20.83 10.0222 20.9879L6.05384 13.6984C7.18119 12.7652 7.65023 11.2328 7.18736 9.82186L15.0109 5.81174C15.3524 6.25506 15.7865 6.60526 16.272 6.8502L11.8346 20.7834C11.6638 20.7611 11.491 20.749 11.3182 20.749ZM17.1772 1.98988C17.422 1.87854 17.6791 1.82186 17.9445 1.82186C18.6563 1.82186 19.3084 2.23279 19.6088 2.8664C19.8145 3.30364 19.8351 3.79352 19.6664 4.24494C19.4977 4.69636 19.1603 5.05668 18.718 5.26113C18.4732 5.37247 18.214 5.42915 17.9486 5.42915C17.2368 5.42915 16.5847 5.01822 16.2843 4.38462C15.8606 3.48178 16.2597 2.40891 17.1772 1.98988ZM3.68599 12.7328C2.97419 12.7328 2.32206 12.3219 2.0217 11.6883C1.59586 10.7874 1.99702 9.71255 2.91248 9.29555C3.15728 9.18421 3.41649 9.12753 3.68187 9.12753C4.39367 9.12753 5.0458 9.53846 5.34616 10.1721C5.772 11.0729 5.37084 12.1478 4.45538 12.5648C4.21058 12.6761 3.95137 12.7328 3.68599 12.7328ZM12.0917 26.0081C11.8469 26.1194 11.5877 26.1761 11.3224 26.1761C10.6106 26.1761 9.95842 25.7652 9.65807 25.1316C9.23223 24.2308 9.63338 23.1559 10.5488 22.7389C10.7936 22.6275 11.0529 22.5709 11.3182 22.5709C12.03 22.5709 12.6822 22.9818 12.9825 23.6154C13.4063 24.5162 13.0072 25.5911 12.0917 26.0081ZM25.9615 18.0385C25.7166 18.1498 25.4574 18.2065 25.1921 18.2065C24.4803 18.2065 23.8281 17.7955 23.5278 17.1619C23.1019 16.2611 23.5031 15.1862 24.4185 14.7692C24.6634 14.6579 24.9226 14.6012 25.1879 14.6012C25.8997 14.6012 26.5519 15.0121 26.8522 15.6457C27.2781 16.5466 26.879 17.6194 25.9615 18.0385Z"
          fill="currentcolor"/>
</svg>
